<?xml version="1.0" encoding="utf-8"?>
<!-- Generator: Adobe Illustrator 27.0.1, SVG Export Plug-In . SVG Version: 6.00 Build 0)  -->
<svg version="1.1" id="Layer_1" xmlns="http://www.w3.org/2000/svg" xmlns:xlink="http://www.w3.org/1999/xlink" x="0px" y="0px"
	 viewBox="0 0 260 260" style="enable-background:new 0 0 260 260;" xml:space="preserve">
<style type="text/css">
	.st0{fill:#99AAB5;}
	.st1{fill:#FFE8B6;}
	.st2{fill:#CCD6DD;}
	.st3{fill:#E6AAAA;}
	.st4{fill:#C1694F;}
	.st5{fill:#272B2B;}
</style>
<g>
	<path class="st0" d="M32.8,58.5c0,0-27.8,13.9-27.8,76.4c0,0,41.6-6.9,48.6-20.9C53.6,114.1,67.5,29,32.8,58.5z M227.2,58.8
		c0,0,27.8,13.9,27.8,76.4c0,0-41.6-6.9-48.6-20.9C206.4,114.3,192.5,29.3,227.2,58.8z"/>
	<path class="st1" d="M11.9,9.8c-7,6.9,6.9,55.6,34.7,62.5c27.8,6.9,27.8-34.7,20.9-34.7C39.7,37.6,26.1-4,11.9,9.8z M250.1,9.8
		c7,6.9-6.9,55.6-34.7,62.5c-27.8,6.9-27.8-34.7-20.9-34.7C222.4,37.6,236-4,250.1,9.8z"/>
	<path class="st2" d="M157.6,218.2h-55.2c-38.4,0-69.6-31.1-69.6-69.6V86.4c0-38.4,31.1-69.6,69.6-69.6h55.2
		c38.4,0,69.6,31.1,69.6,69.6v62.1C227.3,187.1,196.1,218.2,157.6,218.2z"/>
	<path class="st3" d="M248.1,197.4c0,38.4-31.1,55.6-69.4,55.6H81.4C43.1,253,12,235.8,12,197.4S43.1,128,81.4,128h97.2
		C217,127.9,248.1,159.1,248.1,197.4z"/>
	<ellipse class="st4" cx="71" cy="183.5" rx="10.4" ry="20.9"/>
	<ellipse class="st4" cx="189.1" cy="183.5" rx="10.4" ry="20.9"/>
	<path class="st5" d="M81.4,86.3c0,0,0-13.9,13.9-13.9s13.9,13.9,13.9,13.9v13.9c0,0,0,13.9-13.9,13.9s-13.9-13.9-13.9-13.9V86.3z
		 M150.9,86.3c0,0,0-13.9,13.9-13.9s13.9,13.9,13.9,13.9v13.9c0,0,0,13.9-13.9,13.9s-13.9-13.9-13.9-13.9V86.3z"/>
</g>
</svg>
